# xmcd CD database file
#
# Track frame offsets:
#	150
#	19757
#	47247
#	74669
#	98192
#	144503
#	167753
#	205946
#
# Disc length: 3176 seconds
#
# Revision: 3
# Processed by: cddbd v1.5.2PL0 Copyright (c) Steve Scherf et al.
# Submitted via: CDex 1.77
#
DISCID=730c6608
DTITLE=Loreena McKennitt - The Book Of Secrets
DYEAR=1997
DGENRE=Celtic
TTITLE0=Prologue
TTITLE1=The Mummers` Dance
TTITLE2=Skelling
TTITLE3=Marco Polo
TTITLE4=The Highwayman
TTITLE5=La Serenissima
TTITLE6=Night Ride Across The Caucasus
TTITLE7=Dante`s Praver
EXTD=YEAR: 1997
EXTT0=
EXTT1=
EXTT2=
EXTT3=
EXTT4=
EXTT5=
EXTT6=
EXTT7=
PLAYORDER=
